<?xml version="1.0" encoding="UTF-8"?>
<svg version="1.1" xmlns="http://www.w3.org/2000/svg" width="384" height="407">
<path d="M0 0 C126.72 0 253.44 0 384 0 C384 134.31 384 268.62 384 407 C257.28 407 130.56 407 0 407 C0 272.69 0 138.38 0 0 Z " fill="#000000" transform="translate(0,0)"/>
<path d="M0 0 C1.0725 0.680625 2.145 1.36125 3.25 2.0625 C8.1865081 6.56177453 11.33742152 13.35079882 12.515625 19.83984375 C12.86311659 28.48990238 10.25889289 36.5910404 4.875 43.375 C0.22088958 48.28095623 -5.66475638 50.88825213 -12 53 C-14.64 53 -17.28 53 -20 53 C-20 75.11 -20 97.22 -20 120 C-17.69 120 -15.38 120 -13 120 C-2.56230647 123.69101047 4.18788521 130.23182367 9 140 C9.4947583 139.71503662 9.9895166 139.43007324 10.49926758 139.13647461 C22.74121374 132.09390743 35.04246384 125.16527486 47.4074707 118.34155273 C54.66661545 114.32758295 61.85318543 110.21058251 69 106 C68.76095947 104.87609863 68.76095947 104.87609863 68.51708984 103.72949219 C66.90237441 95.20611234 66.43043417 85.26859942 71.45703125 77.890625 C71.96621094 77.26671875 72.47539062 76.6428125 73 76 C73.51949219 75.35546875 74.03898437 74.7109375 74.57421875 74.046875 C79.39000936 68.70348029 84.71950022 65.56109254 91.890625 64.62109375 C100.6040993 64.274789 107.88471794 66.32742724 114.8125 71.6875 C120.04678647 76.55056048 123.56277928 83.1317154 124.203125 90.26171875 C124.39668924 100.27866799 122.07299471 106.73239712 115.125 114.05078125 C107.9512398 120.63112379 100.93251177 121.3538059 91.48828125 121.28515625 C84.73570841 120.73315422 79.94495703 117.50863729 75 113 C74.34 112.01 73.68 111.02 73 110 C69.42067062 110.57804791 66.67476802 111.51218479 63.5078125 113.265625 C62.21979736 113.97295776 62.21979736 113.97295776 60.90576172 114.69458008 C59.98811035 115.20786865 59.07045898 115.72115723 58.125 116.25 C57.16480957 116.78069092 56.20461914 117.31138184 55.21533203 117.8581543 C52.13847846 119.56316709 49.06833657 121.27971161 46 123 C44.98228516 123.56992676 43.96457031 124.13985352 42.91601562 124.72705078 C32.88502983 130.35305575 22.86181942 135.98696143 13.01171875 141.92578125 C11 143 11 143 9 143 C9.33 143.99 9.66 144.98 10 146 C10.98174766 154.62650401 9.18674855 162.38908506 4.234375 169.5546875 C-0.99954343 175.83951081 -6.74341502 179.96792688 -15 181 C-14.67 181.66 -14.34 182.32 -14 183 C-13.76853739 184.54303468 -13.58546926 186.09347183 -13.42749023 187.64575195 C-13.32746201 188.61047928 -13.22743378 189.5752066 -13.12437439 190.56916809 C-12.96806297 192.1378791 -12.96806297 192.1378791 -12.80859375 193.73828125 C-12.69902847 194.81119919 -12.5894632 195.88411713 -12.47657776 196.98954773 C-12.24527696 199.26326729 -12.01591594 201.53718489 -11.78833008 203.8112793 C-11.43994374 207.28811189 -11.08472274 210.76419529 -10.72851562 214.24023438 C-10.5047997 216.4478753 -10.28147946 218.65555636 -10.05859375 220.86328125 C-9.95236191 221.9030159 -9.84613007 222.94275055 -9.73667908 224.01399231 C-9.63980301 224.98817612 -9.54292694 225.96235992 -9.44311523 226.96606445 C-9.35730698 227.81940872 -9.27149872 228.67275299 -9.18309021 229.55195618 C-8.99669027 232.04425336 -8.96834006 234.50172583 -9 237 C-8.12859375 236.95359375 -7.2571875 236.9071875 -6.359375 236.859375 C5.335277 236.50499161 14.83059292 238.29784134 23.90234375 246.01953125 C31.57323927 253.26188512 38.22076935 261.09097535 39.17700195 272.02368164 C39.58132786 286.12031928 38.68752472 297.00524303 29 308 C28.47535156 308.61746094 27.95070312 309.23492187 27.41015625 309.87109375 C20.84020478 317.0593936 11.22075963 321.82182237 1.4609375 322.37109375 C-11.55380979 322.68874441 -21.10801821 321.42225829 -31.375 312.75 C-40.54338561 303.90537761 -46.00514564 294.04115876 -46.29248047 281.26123047 C-46.40865414 266.68851889 -46.40865414 266.68851889 -42 260 C-41.57589844 259.25878906 -41.15179688 258.51757812 -40.71484375 257.75390625 C-35.75257524 249.55717861 -28.29337545 242.0349215 -19 239 C-16.66890089 238.6513849 -14.33563519 238.31680248 -12 238 C-12.06264038 237.43116592 -12.12528076 236.86233185 -12.18981934 236.27626038 C-12.84445614 230.3227394 -13.49226765 224.36850313 -14.13623047 218.41381836 C-14.37701491 216.19553109 -14.61950308 213.97742803 -14.86376953 211.75952148 C-15.21581594 208.56020996 -15.56160501 205.36027253 -15.90625 202.16015625 C-16.07030334 200.68773216 -16.07030334 200.68773216 -16.2376709 199.18556213 C-16.85160645 193.41873707 -17.10426216 187.79958243 -17 182 C-17.66483398 182.0414917 -18.32966797 182.0829834 -19.01464844 182.12573242 C-27.74168587 182.58519271 -34.58658223 180.29032832 -41.3125 174.6875 C-46.39856591 169.87885587 -50.37806066 164.93010443 -52 158 C-52.02699141 156.00018214 -52.03050963 153.99976728 -52 152 C-52.9796875 152.10957031 -53.959375 152.21914062 -54.96875 152.33203125 C-67.58389347 153.68771457 -80.22441138 154.67173188 -92.875 155.625 C-94.21848511 155.7273143 -94.21848511 155.7273143 -95.58911133 155.83169556 C-98.18161145 156.02849118 -100.77434096 156.22189038 -103.3671875 156.4140625 C-104.53814468 156.50298515 -104.53814468 156.50298515 -105.73275757 156.59370422 C-109.83274734 156.89251989 -113.88545223 157.06124054 -118 157 C-117.95359375 157.66644531 -117.9071875 158.33289063 -117.859375 159.01953125 C-117.46653893 169.05088096 -119.62704278 176.61195376 -126.125 184.375 C-132.70326874 191.21422486 -140.57155369 195.04692124 -150.0625 195.3125 C-160.2229402 195.15036532 -167.55702551 191.50914081 -174.83203125 184.51171875 C-181.61025536 176.65874919 -183.39395156 168.49479012 -183.26953125 158.3828125 C-182.52459882 149.03337068 -177.89598492 142.14667586 -171 136 C-162.83282535 129.36502562 -154.15499349 128.72875446 -144.02783203 129.69726562 C-139.33929269 130.39721612 -135.78418216 132.23382603 -132 135 C-131.27425781 135.50789062 -130.54851562 136.01578125 -129.80078125 136.5390625 C-124.43413579 140.72524436 -121.40884987 145.66518809 -119 152 C-119 152.66 -119 153.32 -119 154 C-118.38184921 153.9498877 -117.76369843 153.89977539 -117.1268158 153.84814453 C-110.62083076 153.32191117 -104.11420925 152.80414303 -97.60717773 152.29101562 C-95.18741262 152.09912154 -92.76781059 151.90515817 -90.34838867 151.70898438 C-64.56804283 149.62142074 -64.56804283 149.62142074 -52 150 C-52.0319043 148.36224609 -52.0319043 148.36224609 -52.06445312 146.69140625 C-51.94623252 139.9205898 -48.48143359 133.91321344 -44.13671875 128.8125 C-37.79881245 122.91913623 -31.65391656 120 -23 120 C-23 97.56 -23 75.12 -23 52 C-25.97 51.505 -25.97 51.505 -29 51 C-36.93069607 47.2990085 -41.38427235 41.37577131 -45.1328125 33.671875 C-47.45073665 26.53016276 -47.14730479 17.41289408 -44.0625 10.5625 C-40.39355744 4.326337 -34.15713842 -2.1284731 -27.19921875 -4.59375 C-17.18083598 -6.44439264 -8.48644614 -5.72155879 0 0 Z " fill="#D3D4D4" transform="translate(210,55)"/>
<path d="M0 0 C9.43434206 6.84452267 15.13953192 15.2538003 17.390625 26.734375 C18.75511866 38.27324531 16.00080039 49.18412428 9.203125 58.671875 C2.00149829 67.04007191 -7.72653508 72.77977391 -18.73828125 74.11328125 C-29.82494461 74.52686316 -40.11744677 71.97512045 -48.61328125 64.6484375 C-57.33914469 56.28117119 -62.56474509 47.90943123 -62.95336914 35.59179688 C-63.10819314 23.82029692 -61.09695901 15.4497292 -53.234375 6.296875 C-51.72179974 4.74710527 -50.18255232 3.22258979 -48.609375 1.734375 C-47.77792969 0.94740234 -47.77792969 0.94740234 -46.9296875 0.14453125 C-33.12310611 -11.15488486 -14.10379551 -8.95901476 0 0 Z " fill="#010101" transform="translate(229.609375,301.265625)"/>
<path d="M0 0 C7.34140317 5.0661286 12.25301454 11.16890838 14 20 C14.86686231 30.61551061 13.48277284 37.91991508 6.8125 46.25 C1.32051913 52.16716648 -5.08787428 55.42962795 -13.10546875 56.203125 C-21.84304101 56.39984332 -28.5400445 54.62475492 -35.3125 48.9375 C-42.33560474 42.03605534 -45.43891244 35.94123666 -45.625 26 C-45.45820193 16.5079749 -42.61624903 10.23311844 -35.875 3.625 C-24.90847497 -5.37410858 -12.46801475 -6.38649389 0 0 Z " fill="#020202" transform="translate(75,191)"/>
<path d="M0 0 C1.05840088 0.01027222 1.05840088 0.01027222 2.13818359 0.02075195 C7.96329916 0.19956385 12.31920152 1.28619281 17.1875 4.4375 C18.239375 5.0975 19.29125 5.7575 20.375 6.4375 C25.43001689 11.06772555 28.59102808 17.85414974 29.703125 24.53515625 C30.02729738 33.50778459 27.56237905 40.83610539 21.9375 47.8125 C17.29785967 52.7621163 11.20780923 56.04279923 4.40234375 56.7109375 C-5.53420545 57.01886394 -12.29446488 54.90701709 -19.6875 48.1875 C-26.26792762 40.90702689 -27.55568 33.82255871 -27.25390625 24.09765625 C-26.23906543 15.68256025 -22.36904246 10.25580139 -15.97265625 4.91015625 C-10.69648917 1.31320329 -6.37399373 -0.09478339 0 0 Z " fill="#020202" transform="translate(187.8125,177.5625)"/>
<path d="M0 0 C0.53882813 0.39058594 1.07765625 0.78117187 1.6328125 1.18359375 C2.6846875 1.88484375 3.7365625 2.58609375 4.8203125 3.30859375 C9.57364233 7.60612483 12.16214757 13.08631487 13.1171875 19.37109375 C13.48596395 28.05782786 11.64210612 34.74653031 5.765625 41.25 C-1.16855483 47.71200805 -7.63168664 49.84348343 -17.078125 49.59375 C-23.86483229 48.74742664 -29.18681807 45.82260394 -33.8046875 40.80859375 C-39.92365166 32.66153099 -40.33116495 25.2724941 -39.3671875 15.18359375 C-37.41208645 7.72395223 -31.67803901 2.32185202 -25.3671875 -1.75390625 C-17.66104584 -4.54978531 -7.0207731 -4.39178231 0 0 Z " fill="#020202" transform="translate(206.3671875,55.81640625)"/>
<path d="M0 0 C6.01948364 4.78671116 9.19304782 9.80751409 10.27734375 17.44921875 C10.69867909 25.87592545 8.61111782 32.24493491 3.0703125 38.62890625 C-2.45830487 43.91426445 -8.15891629 46.14028889 -15.6953125 46.93359375 C-23.2644037 46.10787471 -29.74319089 42.98269055 -35.1328125 37.55859375 C-40.46249655 30.43514195 -41.1119957 23.2265905 -40.1328125 14.55859375 C-38.90962432 7.56054601 -34.69912258 2.79171418 -29.1328125 -1.44140625 C-19.81736213 -6.45097399 -8.69303469 -5.87496301 0 0 Z " fill="#020202" transform="translate(321.1328125,127.44140625)"/>
<path d="M0 0 C2.26953125 1.3984375 2.26953125 1.3984375 4.375 2.9375 C5.10074219 3.44539062 5.82648438 3.95328125 6.57421875 4.4765625 C11.94086421 8.66274436 14.96615013 13.60268809 17.375 19.9375 C17.375 20.5975 17.375 21.2575 17.375 21.9375 C17.99315079 21.8873877 18.61130157 21.83727539 19.2481842 21.78564453 C25.75416924 21.25941117 32.26079075 20.74164303 38.76782227 20.22851562 C41.18758738 20.03662154 43.60718941 19.84265817 46.02661133 19.64648438 C71.80695717 17.55892074 71.80695717 17.55892074 84.375 17.9375 C84.705 16.2875 85.035 14.6375 85.375 12.9375 C85.705 12.9375 86.035 12.9375 86.375 12.9375 C86.375 16.8975 86.375 20.8575 86.375 24.9375 C85.715 24.6075 85.055 24.2775 84.375 23.9375 C84.375 22.6175 84.375 21.2975 84.375 19.9375 C82.90546875 20.10185547 82.90546875 20.10185547 81.40625 20.26953125 C68.79110653 21.62521457 56.15058862 22.60923188 43.5 23.5625 C42.60434326 23.63070953 41.70868652 23.69891907 40.78588867 23.76919556 C38.19338855 23.96599118 35.60065904 24.15939038 33.0078125 24.3515625 C31.83685532 24.44048515 31.83685532 24.44048515 30.64224243 24.53120422 C26.54225266 24.83001989 22.48954777 24.99874054 18.375 24.9375 C18.42140625 25.60394531 18.4678125 26.27039063 18.515625 26.95703125 C18.90846107 36.98838096 16.74795722 44.54945376 10.25 52.3125 C3.67173126 59.15172486 -4.19655369 62.98442124 -13.6875 63.25 C-23.8479402 63.08786532 -31.18202551 59.44664081 -38.45703125 52.44921875 C-45.23525536 44.59624919 -47.01895156 36.43229012 -46.89453125 26.3203125 C-46.14959882 16.97087068 -41.52098492 10.08417586 -34.625 3.9375 C-25.22277297 -3.70082514 -11.06353388 -5.12992298 0 0 Z M-40.29296875 14.1171875 C-44.73995869 21.51638085 -44.66325004 29.6230586 -43.625 37.9375 C-41.34866107 45.64897419 -36.38599743 51.96301018 -29.57421875 56.21875 C-21.80942395 60.3131804 -13.54794355 61.3039083 -5.0625 58.8125 C3.56479115 55.60549648 10.04546158 49.51624793 14.1875 41.375 C17.01674536 32.95193238 16.24545856 23.81664779 12.375 15.9375 C7.83453814 7.82953238 1.89280873 3.47324724 -6.8671875 0.6328125 C-20.24712669 -2.74059993 -32.16747007 3.49885433 -40.29296875 14.1171875 Z " fill="#D5D5D5" transform="translate(73.625,187.0625)"/>
<path d="M0 0 C1.58025005 0.21192095 3.16398461 0.39923371 4.75 0.5625 C5.54921875 0.64628906 6.3484375 0.73007813 7.171875 0.81640625 C8.07679688 0.90728516 8.07679688 0.90728516 9 1 C9 0.34 9 -0.32 9 -1 C12.37462715 -0.45276317 14.08235 0.0549 17 2 C16.67 2.66 16.34 3.32 16 4 C15.33484375 3.84273437 14.6696875 3.68546875 13.984375 3.5234375 C5.3199385 2.00375885 -4.64562851 1.35033039 -12.171875 6.44921875 C-18.36345956 11.70148172 -22.56388268 17.22963028 -23.31640625 25.4609375 C-23.62343639 35.38494409 -22.54531038 42.37509319 -15.8125 49.8125 C-9.99655787 55.15721441 -3.67678967 57.39417033 4.15234375 57.62890625 C6 58 6 58 8 61 C-1.49130919 61.7269939 -8.9191634 59.84630197 -16.3125 53.6875 C-22.30243475 48.00008721 -25.42854391 43.14299976 -27 35 C-26.67 35 -26.34 35 -26 35 C-25.9727585 33.58344207 -25.95349533 32.16672955 -25.9375 30.75 C-25.92589844 29.96109375 -25.91429687 29.1721875 -25.90234375 28.359375 C-25.88758662 26.03265689 -25.88758662 26.03265689 -26.65625 24.06640625 C-27.47520168 19.14338989 -23.51763748 14.01873933 -21 10 C-16.0834985 4.20922522 -7.89566879 -2.44462053 0 0 Z " fill="#D5D6D6" transform="translate(185,176)"/>
<path d="M0 0 C0 0.66 0 1.32 0 2 C-1.84464844 2.14695312 -1.84464844 2.14695312 -3.7265625 2.296875 C-5.35945712 2.44702623 -6.99226548 2.59811772 -8.625 2.75 C-9.43324219 2.811875 -10.24148438 2.87375 -11.07421875 2.9375 C-18.00041831 3.61322679 -22.66216836 6.00572451 -27.25 11.375 C-27.72953125 11.91898438 -28.2090625 12.46296875 -28.703125 13.0234375 C-32.86327092 19.36390085 -32.81455665 26.70328725 -32 34 C-29.97946235 40.869828 -26.6229517 45.00057519 -20.57421875 48.74609375 C-19.79498047 49.36677734 -19.79498047 49.36677734 -19 50 C-19 50.99 -19 51.98 -19 53 C-24.74809835 51.02922342 -28.9617138 47.48698467 -33 43 C-33 42.34 -33 41.68 -33 41 C-33.66 40.67 -34.32 40.34 -35 40 C-37.21242304 32.35708404 -37.69052567 21.06209627 -33.9375 13.9375 C-32.54296875 11.890625 -32.54296875 11.890625 -31 10 C-30.22076172 9.03320312 -30.22076172 9.03320312 -29.42578125 8.046875 C-21.80020205 -0.41414061 -11.01672223 -3.67224074 0 0 Z " fill="#CFD0D0" transform="translate(314,121)"/>
<path d="M0 0 C1.85654704 1.57066403 2.89262818 2.49240055 3.40405273 4.91015625 C3.41867554 5.97556641 3.41867554 5.97556641 3.43359375 7.0625 C3.44503418 7.85422607 3.45647461 8.64595215 3.46826172 9.46166992 C3.45811035 10.29931885 3.44795898 11.13696777 3.4375 12 C3.42992676 12.85634033 3.42235352 13.71268066 3.41455078 14.5949707 C3.1402787 25.1764676 -0.00615433 33.06240648 -7 41 C-7.52464844 41.61746094 -8.04929688 42.23492187 -8.58984375 42.87109375 C-14.34578657 49.16877236 -23.31319178 54.47037637 -31.97583008 55.15649414 C-34.11260563 55.1958031 -36.23851284 55.17522483 -38.375 55.125 C-39.47908203 55.11146484 -39.47908203 55.11146484 -40.60546875 55.09765625 C-42.4037888 55.07430144 -44.20193911 55.03843836 -46 55 C-46.33 54.34 -46.66 53.68 -47 53 C-46.04480469 52.97421875 -45.08960938 52.9484375 -44.10546875 52.921875 C-32.72694542 52.42271745 -23.54022008 50.71569421 -14.55859375 43.171875 C-13 42 -13 42 -11 42 C-10.773125 41.484375 -10.54625 40.96875 -10.3125 40.4375 C-9 38 -9 38 -6.625 35 C0.97371235 24.26710065 0.47284436 12.55664479 0 0 Z " fill="#DADADA" transform="translate(246,322)"/>
<path d="M0 0 C0.144375 0.598125 0.28875 1.19625 0.4375 1.8125 C0.8872439 3.56150404 1.42892341 5.28677023 2 7 C2.12860922 9.33211381 2.2287956 11.66584304 2.3125 14 C3.0113361 26.79965373 7.53777562 35.98352841 16.75 44.75 C22.37251861 49.47680067 28.84608733 51.70390925 36 53 C35.67 53.99 35.34 54.98 35 56 C24.83792106 55.53808732 15.84851626 49.93811671 9.04296875 42.63671875 C1.49264005 32.89203065 -1.17960317 24.38769765 -1.125 12.375 C-1.12886719 11.51648438 -1.13273438 10.65796875 -1.13671875 9.7734375 C-1.13542969 8.9484375 -1.13414062 8.1234375 -1.1328125 7.2734375 C-1.13168457 6.52497559 -1.13055664 5.77651367 -1.12939453 5.00537109 C-1 3 -1 3 0 0 Z " fill="#D3D4D4" transform="translate(165,321)"/>
<path d="M0 0 C0.33 0 0.66 0 1 0 C1 3.96 1 7.92 1 12 C0.01 11.505 0.01 11.505 -1 11 C-1 9.68 -1 8.36 -1 7 C-2.13050781 7.12117187 -3.26101562 7.24234375 -4.42578125 7.3671875 C-14.6476831 8.43875156 -24.8763842 9.34830138 -35.125 10.125 C-36.24946533 10.21249512 -37.37393066 10.29999023 -38.5324707 10.39013672 C-48.17370292 11.10175659 -57.40758442 11.23773104 -67 10 C-67 9.67 -67 9.34 -67 9 C-60.01215618 8.42179025 -53.02357134 7.85324543 -46.03442383 7.29101562 C-43.66315445 7.09916379 -41.29205467 6.90520233 -38.92114258 6.70898438 C-13.66268764 4.62142074 -13.66268764 4.62142074 -1 5 C-0.67 3.35 -0.34 1.7 0 0 Z " fill="#DEDFDF" transform="translate(159,200)"/>
<path d="M0 0 C2.28985004 1.78705228 2.9521379 2.63435581 3.3359375 5.56640625 C3.35527344 7.04947266 3.35527344 7.04947266 3.375 8.5625 C3.94318223 17.28514948 6.92035979 23.34783633 13.1875 29.4375 C18.71319595 34.00540865 24.40321804 35.46714341 31.375 36.5 C34.3385307 37.06448204 35.67779574 38.14223659 38 40 C27.25521566 40.74818614 18.997438 38.8830407 10.625 31.875 C4.39979541 25.88732309 0.16626008 18.50653397 -0.09765625 9.765625 C-0.08605469 8.60546875 -0.07445313 7.4453125 -0.0625 6.25 C-0.05347656 5.07953125 -0.04445313 3.9090625 -0.03515625 2.703125 C-0.02355469 1.81109375 -0.01195313 0.9190625 0 0 Z " fill="#D6D7D7" transform="translate(27,210)"/>
<path d="M0 0 C8.83566434 2.32226472 17.22387477 10.12545872 21.953125 17.7890625 C25.15193303 23.73898985 25.15193303 23.73898985 26.12109375 26.8203125 C25.2734375 29.18359375 25.2734375 29.18359375 24.12109375 30.8203125 C22.12109375 27.8203125 22.12109375 27.8203125 21.05859375 24.2578125 C17.53397335 14.68846812 9.0324791 8.13275956 0.12109375 3.8203125 C-3.26171629 2.4645947 -3.26171629 2.4645947 -5.87890625 1.8203125 C-2.87890625 -0.1796875 -2.87890625 -0.1796875 0 0 Z " fill="#D0D1D1" transform="translate(221.87890625,294.1796875)"/>
<path d="M0 0 C2.99233537 2.99233537 2.71467506 6.54607803 3.10546875 10.5859375 C3.19379471 11.43926666 3.28212067 12.29259583 3.37312317 13.17178345 C3.55798062 14.97867086 3.73841879 16.78601499 3.91479492 18.59375 C4.1858451 21.3581221 4.47367953 24.12037055 4.76367188 26.8828125 C4.94111349 28.63791908 5.11757803 30.39312478 5.29296875 32.1484375 C5.37935104 32.97459564 5.46573334 33.80075378 5.55473328 34.65194702 C5.62843643 35.42599884 5.70213959 36.20005066 5.77807617 36.99755859 C5.84532394 37.67547455 5.91257172 38.3533905 5.9818573 39.05184937 C6.002192 41.23537566 5.70409133 42.93375286 5 45 C4.34 45.66 3.68 46.32 3 47 C2.42473841 41.87772391 1.85528186 36.75484666 1.29101562 31.63134766 C1.09857004 29.89126503 0.90458512 28.15135188 0.70898438 26.41162109 C0.42686025 23.89985273 0.15041903 21.38751137 -0.125 18.875 C-0.21249512 18.10696045 -0.29999023 17.3389209 -0.39013672 16.54760742 C-1.79261815 3.5852363 -1.79261815 3.5852363 0 0 Z " fill="#DFE0E0" transform="translate(194,236)"/>
<path d="M0 0 C0.33 0 0.66 0 1 0 C1.70351597 9.97429312 0.93888481 17.30549867 -5.76171875 25.03125 C-11.52271931 30.54685297 -18.54375348 34.20716654 -26.625 34.25 C-27.73875 34.1675 -28.8525 34.085 -30 34 C-30.495 32.515 -30.495 32.515 -31 31 C-30.154375 30.91363281 -29.30875 30.82726562 -28.4375 30.73828125 C-19.3307415 29.61028503 -13.79548175 27.7092208 -7.25 21.3125 C-2.50635371 15.07845133 -0.56931854 7.68580028 0 0 Z " fill="#D6D7D7" transform="translate(220,74)"/>
<path d="M0 0 C0 0.66 0 1.32 0 2 C-0.96099609 2.4021875 -0.96099609 2.4021875 -1.94140625 2.8125 C-9.85408676 6.39738059 -14.48583913 10.72592653 -18.875 18.1875 C-20.50868578 23.72387958 -20.74938802 29.25320813 -21 35 C-21.66 35 -22.32 35 -23 35 C-23.55668693 25.72188444 -23.88118835 17.71059026 -18 10 C-12.78901823 4.50157974 -7.92233466 -0.4401297 0 0 Z " fill="#D7D8D8" transform="translate(187,51)"/>
<path d="M0 0 C2.58926331 2.58926331 2.37398043 4.02705279 2.625 7.625 C2.69976562 8.62789063 2.77453125 9.63078125 2.8515625 10.6640625 C2.92503906 11.82035156 2.92503906 11.82035156 3 13 C4.44632813 12.98259766 4.44632813 12.98259766 5.921875 12.96484375 C7.18515625 12.95582031 8.4484375 12.94679688 9.75 12.9375 C11.00296875 12.92589844 12.2559375 12.91429687 13.546875 12.90234375 C16.28536501 12.97978973 18.41880293 13.17219185 21 14 C21 14.66 21 15.32 21 16 C19.20755859 15.98259766 19.20755859 15.98259766 17.37890625 15.96484375 C5.65678307 15.87827909 5.65678307 15.87827909 -6 17 C-6.33 16.34 -6.66 15.68 -7 15 C-3.535 14.505 -3.535 14.505 0 14 C0 9.38 0 4.76 0 0 Z " fill="#E0E1E1" transform="translate(198,279)"/>
<path d="M0 0 C6.24394999 2.01203182 11.21630796 5.59396786 16 10 C15.67 11.32 15.34 12.64 15 14 C14.55011719 13.54109375 14.10023437 13.0821875 13.63671875 12.609375 C4.66676653 4.05286747 -4.88877044 2.38509474 -17 2 C-11.87383914 -1.41744058 -5.97373597 -0.6261242 0 0 Z " fill="#DDDEDE" transform="translate(68,185)"/>
<path d="M0 0 C0.40089844 0.38671875 0.80179688 0.7734375 1.21484375 1.171875 C7.7479396 7.15684263 14.22565772 10.36126311 23.15234375 10.62890625 C25 11 25 11 27 14 C16.73521149 14.78623912 9.03262791 12.22121445 1.1796875 5.5625 C0 4 0 4 0 0 Z " fill="#D1D2D2" transform="translate(166,223)"/>
<path d="M0 0 C2.27982963 1.78395157 2.94955716 2.65114796 3.37109375 5.56640625 C3.39300781 6.55511719 3.41492188 7.54382813 3.4375 8.5625 C3.78010569 14.6772668 5.38470634 19.50180125 8 25 C7.01 25.33 6.02 25.66 5 26 C4.35004703 24.58521865 3.70521278 23.16808513 3.0625 21.75 C2.70285156 20.96109375 2.34320312 20.1721875 1.97265625 19.359375 C0.11574204 14.85505297 -0.11139111 11.13911081 -0.0625 6.25 C-0.05347656 5.07953125 -0.04445313 3.9090625 -0.03515625 2.703125 C-0.02355469 1.81109375 -0.01195313 0.9190625 0 0 Z " fill="#D1D2D2" transform="translate(27,210)"/>
<path d="M0 0 C0.144375 0.598125 0.28875 1.19625 0.4375 1.8125 C0.8872439 3.56150404 1.42892341 5.28677023 2 7 C2.20359805 9.43469338 2.36487704 11.87304805 2.5 14.3125 C2.7583703 18.94932411 3.15023189 23.43249639 4 28 C3.01 28.33 2.02 28.66 1 29 C-0.95060269 23.29467989 -1.2756574 18.25398282 -1.1875 12.25 C-1.18685547 11.40050781 -1.18621094 10.55101562 -1.18554688 9.67578125 C-1.16033967 6.12996715 -1.13113472 3.39340416 0 0 Z " fill="#B5B6B6" transform="translate(165,321)"/>
<path d="M0 0 C0.33 0 0.66 0 1 0 C1.62583262 8.87291587 1.11671339 15.53392243 -4 23 C-4.9688981 24.03016332 -5.95966212 25.04203492 -7 26 C-7.66 25.67 -8.32 25.34 -9 25 C-8.51789063 24.11699219 -8.03578125 23.23398438 -7.5390625 22.32421875 C-3.63028023 14.96760037 -0.84125375 8.41253752 0 0 Z " fill="#E0E1E1" transform="translate(220,74)"/>
<path d="M0 0 C3.62192568 3.20401118 6.04465337 6.94010707 8.6328125 10.9765625 C9.97612355 13.10280482 9.97612355 13.10280482 12 15 C11.625 17.125 11.625 17.125 11 19 C0 7.24228029 0 7.24228029 0 0 Z " fill="#D6D7D7" transform="translate(167,348)"/>
<path d="M0 0 C0.33 0 0.66 0 1 0 C1.02578125 0.83402344 1.0515625 1.66804687 1.078125 2.52734375 C1.41005697 9.11317577 2.02847891 14.29599142 5.2578125 20.09765625 C6.17718885 22.45416299 5.82528364 23.65473194 5 26 C1.03652095 20.99350015 -0.79022851 17.2688159 -2 11 C-1.67 11 -1.34 11 -1 11 C-0.67 7.37 -0.34 3.74 0 0 Z " fill="#D8D8D8" transform="translate(160,200)"/>
<path d="M0 0 C3 3 3 3 3.34057617 5.0847168 C3.32486572 5.86500244 3.30915527 6.64528809 3.29296875 7.44921875 C3.28330078 8.29677734 3.27363281 9.14433594 3.26367188 10.01757812 C3.23853516 10.89865234 3.21339844 11.77972656 3.1875 12.6875 C3.16719727 14.02651367 3.16719727 14.02651367 3.14648438 15.39257812 C3.11114079 17.59566166 3.06180493 19.79752582 3 22 C2.34 22.33 1.68 22.66 1 23 C0.67 15.41 0.34 7.82 0 0 Z " fill="#E4E5E5" transform="translate(246,322)"/>
<path d="M0 0 C2.35358251 2.35358251 2.27871904 2.92968394 2.4140625 6.1328125 C2.45273438 6.93847656 2.49140625 7.74414062 2.53125 8.57421875 C2.5621875 9.41597656 2.593125 10.25773438 2.625 11.125 C2.66367188 11.97449219 2.70234375 12.82398438 2.7421875 13.69921875 C2.83656494 15.79911684 2.91937586 17.89952891 3 20 C2.01 19.34 1.02 18.68 0 18 C-0.41264722 15.26473845 -0.64914294 12.74715413 -0.75 10 C-0.79253906 9.26265625 -0.83507812 8.5253125 -0.87890625 7.765625 C-1.14835963 2.29671927 -1.14835963 2.29671927 0 0 Z " fill="#CBCCCC" transform="translate(194,236)"/>
<path d="M0 0 C4.46729752 1.58837245 9.63886521 4.65273041 11.8125 9 C10.8225 9.33 9.8325 9.66 8.8125 10 C6.98046875 8.85546875 6.98046875 8.85546875 5 7.1875 C1.72379366 4.57743543 -1.06868922 3.02970269 -5.1875 2 C-2.1875 0 -2.1875 0 0 0 Z " fill="#D3D4D4" transform="translate(316.1875,122)"/>
<path d="M0 0 C0.66 0 1.32 0 2 0 C2.39325819 6.97669157 1.63096039 12.51656189 -1 19 C-1.99 18.67 -2.98 18.34 -4 18 C-3.34 15.36 -2.68 12.72 -2 10 C-1.67 10 -1.34 10 -1 10 C-0.67 6.7 -0.34 3.4 0 0 Z " fill="#CFD0D0" transform="translate(218,201)"/>
<path d="M0 0 C0.66 0 1.32 0 2 0 C2.66 0.66 3.32 1.32 4 2 C6.10820797 1.6814823 6.10820797 1.6814823 8 1 C7.34 2.32 6.68 3.64 6 5 C5.34 5 4.68 5 4 5 C3.67 9.62 3.34 14.24 3 19 C2.67 19 2.34 19 2 19 C1.93941406 18.13117188 1.87882813 17.26234375 1.81640625 16.3671875 C1.73261719 15.21476563 1.64882812 14.06234375 1.5625 12.875 C1.48128906 11.73804688 1.40007812 10.60109375 1.31640625 9.4296875 C1.02269035 6.2459522 0.56875687 3.14489093 0 0 Z " fill="#E4E5E5" transform="translate(215,193)"/>
<path d="M0 0 C0.33 0 0.66 0 1 0 C1.02578125 0.83402344 1.0515625 1.66804688 1.078125 2.52734375 C1.44685458 9.84327377 2.4287493 15.57174875 6 22 C5.01 22.33 4.02 22.66 3 23 C-2.14087385 16.76863775 -1.08786944 10.85806856 -0.359375 3.25390625 C-0.24078125 2.18011719 -0.1221875 1.10632813 0 0 Z " fill="#BEBFBF" transform="translate(166,73)"/>
<path d="M0 0 C0.33 0 0.66 0 1 0 C1 3.96 1 7.92 1 12 C0.34 11.67 -0.32 11.34 -1 11 C-1 9.68 -1 8.36 -1 7 C-5.29 7 -9.58 7 -14 7 C-14 6.67 -14 6.34 -14 6 C-7.565 5.505 -7.565 5.505 -1 5 C-0.67 3.35 -0.34 1.7 0 0 Z " fill="#F0F1F1" transform="translate(159,200)"/>
<path d="M0 0 C1.05445313 0.08894531 2.10890625 0.17789063 3.1953125 0.26953125 C4.24460937 0.34558594 5.29390625 0.42164063 6.375 0.5 C9.48477333 1.1145308 10.98609063 1.99025271 13.3203125 4.08203125 C6.91401826 4.29055439 1.39058608 4.24035075 -4.6796875 2.08203125 C-2.6796875 0.08203125 -2.6796875 0.08203125 0 0 Z " fill="#BDBEBE" transform="translate(51.6796875,245.91796875)"/>
<path d="M0 0 C2.81403301 0.28050806 5.62567253 0.57381304 8.4375 0.875 C9.23994141 0.95363281 10.04238281 1.03226563 10.86914062 1.11328125 C12.92170994 1.33845763 14.96293009 1.66222587 17 2 C17.33 2.66 17.66 3.32 18 4 C15.75106046 4.10823773 13.50062425 4.18569645 11.25 4.25 C9.37054688 4.31960937 9.37054688 4.31960937 7.453125 4.390625 C4 4 4 4 1.546875 1.984375 C1.03640625 1.32953125 0.5259375 0.6746875 0 0 Z " fill="#DFE0E0" transform="translate(294,172)"/>
<path d="M0 0 C1.916588 -0.02712153 3.8332873 -0.04645097 5.75 -0.0625 C7.35101563 -0.07990234 7.35101563 -0.07990234 8.984375 -0.09765625 C11.53368501 -0.01510087 13.57933591 0.25382442 16 1 C16 1.66 16 2.32 16 3 C10.39 2.67 4.78 2.34 -1 2 C-0.67 1.34 -0.34 0.68 0 0 Z " fill="#E7E8E8" transform="translate(203,292)"/>
<path d="M0 0 C1.23104155 3.68400584 0.90767252 6.91474976 0.5625 10.75 C0.46066406 11.92046875 0.35882813 13.0909375 0.25390625 14.296875 C0.17011719 15.18890625 0.08632812 16.0809375 0 17 C-0.66 17 -1.32 17 -2 17 C-2.05383848 14.54137599 -2.09359038 12.0839245 -2.125 9.625 C-2.14175781 8.92632812 -2.15851563 8.22765625 -2.17578125 7.5078125 C-2.19344267 5.67102514 -2.10303261 3.83398037 -2 2 C-1.34 1.34 -0.68 0.68 0 0 Z " fill="#DDDEDE" transform="translate(166,69)"/>
<path d="M0 0 C3.37462715 0.54723683 5.08235 1.0549 8 3 C7.67 3.66 7.34 4.32 7 5 C1.39 4.34 -4.22 3.68 -10 3 C-10 2.67 -10 2.34 -10 2 C-6.7 2 -3.4 2 0 2 C0 1.34 0 0.68 0 0 Z " fill="#AFB0B0" transform="translate(194,175)"/>
<path d="M0 0 C0 0.66 0 1.32 0 2 C-1.43011973 2.86646667 -2.86940619 3.71781829 -4.3125 4.5625 C-5.51326172 5.27599609 -5.51326172 5.27599609 -6.73828125 6.00390625 C-9 7 -9 7 -12 6 C-8.42811627 2.0521285 -5.4000395 0 0 0 Z " fill="#DBDCDC" transform="translate(281,162)"/>
<path d="M0 0 C2.32421875 0.21875 2.32421875 0.21875 6.32421875 3.21875 C-0.93578125 2.88875 -8.19578125 2.55875 -15.67578125 2.21875 C-15.67578125 1.88875 -15.67578125 1.55875 -15.67578125 1.21875 C-13.61347857 1.0496593 -11.55092895 0.88357867 -9.48828125 0.71875 C-7.76544922 0.57953125 -7.76544922 0.57953125 -6.0078125 0.4375 C-4.00421854 0.30596276 -2.00123073 0.16360426 0 0 Z " fill="#CBCCCC" transform="translate(118.67578125,206.78125)"/>
<path d="M0 0 C0.33 0.66 0.66 1.32 1 2 C-0.43344 2.53190541 -1.87195367 3.05015258 -3.3125 3.5625 C-4.51326172 3.99755859 -4.51326172 3.99755859 -5.73828125 4.44140625 C-8 5 -8 5 -11 4 C-7.75408636 0.429495 -4.83711282 -2.00156393 0 0 Z " fill="#CDCECE" transform="translate(54,186)"/>
<path d="M0 0 C0 0.66 0 1.32 0 2 C-3.3 3.32 -6.6 4.64 -10 6 C-9 2 -9 2 -7.25 0.75 C-4.71262971 -0.0957901 -2.65765704 -0.14764761 0 0 Z " fill="#DBDBDB" transform="translate(187,51)"/>
<path d="M0 0 C0.66 0.33 1.32 0.66 2 1 C0.74874616 4.75376152 -0.5652404 5.24073289 -4 7 C-4.66 7 -5.32 7 -6 7 C-6.33 6.01 -6.66 5.02 -7 4 C-1.7265625 0.77734375 -1.7265625 0.77734375 0 0 Z " fill="#CCCDCD" transform="translate(268,167)"/>
<path d="M0 0 C0 0.99 0 1.98 0 3 C-2.8125 4.5625 -2.8125 4.5625 -6 6 C-6.99 5.67 -7.98 5.34 -9 5 C-6.45523312 2.20075644 -3.92372883 0 0 0 Z " fill="#DCDDDD" transform="translate(262,172)"/>
<path d="M0 0 C0.33 0 0.66 0 1 0 C1.24959784 2.0809844 1.47394907 4.16500812 1.6875 6.25 C1.81511719 7.41015625 1.94273437 8.5703125 2.07421875 9.765625 C2 13 2 13 -1 17 C-0.67 11.39 -0.34 5.78 0 0 Z " fill="#BFC0C0" transform="translate(197,258)"/>
<path d="M0 0 C0 0.66 0 1.32 0 2 C-0.804375 2.12375 -1.60875 2.2475 -2.4375 2.375 C-3.7059375 2.684375 -3.7059375 2.684375 -5 3 C-5.33 3.66 -5.66 4.32 -6 5 C-6 4.34 -6 3.68 -6 3 C-7.65 3 -9.3 3 -11 3 C-6.9903514 0.32690093 -4.82843714 0 0 0 Z " fill="#E9EAEA" transform="translate(199,233)"/>
<path d="M0 0 C0.33 0 0.66 0 1 0 C1.33 4.95 1.66 9.9 2 15 C1.01 15.33 0.02 15.66 -1 16 C-1.33 14.35 -1.66 12.7 -2 11 C-1.67 11 -1.34 11 -1 11 C-0.67 7.37 -0.34 3.74 0 0 Z " fill="#ACADAD" transform="translate(160,200)"/>
<path d="M0 0 C3.63 0 7.26 0 11 0 C11 0.66 11 1.32 11 2 C7.78548731 3.60725635 4.56387464 3.05748185 1 3 C0.67 2.01 0.34 1.02 0 0 Z " fill="#CECFCF" transform="translate(189,105)"/>
<path d="M0 0 C-0.33 0.66 -0.66 1.32 -1 2 C-3.32156597 2.40729228 -5.6568787 2.74438677 -8 3 C-7.67 2.01 -7.34 1.02 -7 0 C-4.3333581 -1.33332095 -2.83319697 -0.67102033 0 0 Z " fill="#CCCDCD" transform="translate(193,296)"/>
<path d="M0 0 C-0.33 0.66 -0.66 1.32 -1 2 C-3.64860427 2.59355614 -6.29197322 2.74209269 -9 3 C-6.27596221 -1.08605669 -4.4643819 -1.38549783 0 0 Z " fill="#DDDEDE" transform="translate(185,176)"/>
<path d="M0 0 C0.66 0 1.32 0 2 0 C2 1.98 2 3.96 2 6 C0.02 6.99 0.02 6.99 -2 8 C-1.125 1.125 -1.125 1.125 0 0 Z " fill="#BCBDBD" transform="translate(280,136)"/>
<path d="M0 0 C3.93846154 3.32307692 3.93846154 3.32307692 4.25 6.75 C4.1675 7.4925 4.085 8.235 4 9 C1.47740939 7.02579865 1.0070192 6.03254358 0.3125 2.8125 C0.209375 1.884375 0.10625 0.95625 0 0 Z " fill="#DFE0E0" transform="translate(167,348)"/>
<path d="M0 0 C2.0625 1.75 2.0625 1.75 4 4 C3.75 6.25 3.75 6.25 3 8 C2.34 8 1.68 8 1 8 C1 7.34 1 6.68 1 6 C0.34 5.67 -0.32 5.34 -1 5 C-0.67 3.35 -0.34 1.7 0 0 Z " fill="#C8C9C9" transform="translate(280,156)"/>
<path d="M0 0 C0 0.66 0 1.32 0 2 C-2.64 2.66 -5.28 3.32 -8 4 C-8 3.01 -8 2.02 -8 1 C-5.07175348 0.02391783 -3.04386724 -0.08226668 0 0 Z " fill="#DEDFDF" transform="translate(222,373)"/>
<path d="M0 0 C1.46726798 3.81489674 0.43336419 6.29011622 -1 10 C-1.33 10 -1.66 10 -2 10 C-2.1953125 3.9453125 -2.1953125 3.9453125 -2 2 C-1.34 1.34 -0.68 0.68 0 0 Z " fill="#E7E8E8" transform="translate(30,205)"/>
<path d="M0 0 C0.86625 0.556875 0.86625 0.556875 1.75 1.125 C-3 4.125 -3 4.125 -5.25 4.125 C-5.58 3.135 -5.91 2.145 -6.25 1.125 C-2.80384615 -1.09038462 -2.80384615 -1.09038462 0 0 Z " fill="#CBCCCC" transform="translate(242.25,183.875)"/>
<path d="M0 0 C0.99 0 1.98 0 3 0 C4.35439668 2.70879335 4.06501451 5.00933268 4 8 C3.34 7.67 2.68 7.34 2 7 C1.26924352 4.6859378 0.59861742 2.35171131 0 0 Z " fill="#E0E1E1" transform="translate(216,65)"/>
<path d="M0 0 C2.97 1.98 2.97 1.98 6 4 C4.02 4.99 4.02 4.99 2 6 C1.34 5.34 0.68 4.68 0 4 C0 2.68 0 1.36 0 0 Z " fill="#CBCCCC" transform="translate(179,364)"/>
<path d="M0 0 C2.375 0.3125 2.375 0.3125 5 1 C5.66 1.99 6.32 2.98 7 4 C6.01 4.33 5.02 4.66 4 5 C1.8125 3.6875 1.8125 3.6875 0 2 C0 1.34 0 0.68 0 0 Z " fill="#D7D8D8" transform="translate(228,299)"/>
<path d="M0 0 C0 0.99 0 1.98 0 3 C-1.98 3.66 -3.96 4.32 -6 5 C-6 4.01 -6 3.02 -6 2 C-2.25 0 -2.25 0 0 0 Z " fill="#DADBDB" transform="translate(237,186)"/>
<path d="M0 0 C0.99 0 1.98 0 3 0 C2.34 2.31 1.68 4.62 1 7 C0.01 6.67 -0.98 6.34 -2 6 C-1.34 4.02 -0.68 2.04 0 0 Z " fill="#CFD0D0" transform="translate(167,64)"/>
<path d="M0 0 C3.26954202 0.56371414 4.82575883 1.49962266 7 4 C6.01 4.33 5.02 4.66 4 5 C1.8125 3.6875 1.8125 3.6875 0 2 C0 1.34 0 0.68 0 0 Z " fill="#E1E2E2" transform="translate(201,178)"/>
<path d="M0 0 C2.475 0.99 2.475 0.99 5 2 C5 2.99 5 3.98 5 5 C2.525 4.01 2.525 4.01 0 3 C0 2.01 0 1.02 0 0 Z " fill="#CBCCCC" transform="translate(290,169)"/>
<path d="M0 0 C0.66 0.66 1.32 1.32 2 2 C1.625 5.125 1.625 5.125 1 8 C0.01 7.67 -0.98 7.34 -2 7 C-1.34 4.69 -0.68 2.38 0 0 Z " fill="#CBCCCC" transform="translate(330,154)"/>
<path d="M0 0 C3.16115776 1.36983503 3.9927092 1.9890638 6 5 C5.01 5.33 4.02 5.66 3 6 C0 2.25 0 2.25 0 0 Z " fill="#DBDBDB" transform="translate(170,95)"/>
</svg>
